<svg width="106" height="103" viewBox="0 0 106 103" fill="none" xmlns="http://www.w3.org/2000/svg">
<rect width="106" height="103" fill="white"/>
<path d="M27 7V21C27 21.8284 26.3284 22.5 25.5 22.5H7C4.51472 22.5 2.5 24.5147 2.5 27V66C2.5 68.4853 4.51472 70.5 7 70.5H25.5C26.3284 70.5 27 71.1716 27 72V86.5C27 88.9853 29.0147 91 31.5 91H67.5C69.9853 91 72 88.9853 72 86.5V70C72 69.1716 72.6716 68.5 73.5 68.5H88.5C90.9853 68.5 93 66.4853 93 64V27C93 24.5147 90.9853 22.5 88.5 22.5H70.5C69.6716 22.5 69 21.8284 69 21V7C69 4.51472 66.9853 2.5 64.5 2.5H31.5C29.0147 2.5 27 4.51472 27 7Z" stroke="#2C2C2C" stroke-width="3" stroke-linejoin="round"/>
<path d="M94.5 35H100.5C102.157 35 103.5 36.3431 103.5 38V77C103.5 78.6569 102.157 80 100.5 80H84.5C82.8431 80 81.5 81.3431 81.5 83V97.5C81.5 99.1569 80.1569 100.5 78.5 100.5H41.5C39.8431 100.5 38.5 99.1569 38.5 97.5V91.5" stroke="#2C2C2C" stroke-width="3" stroke-linejoin="round"/>
<path d="M65.7686 37.776C61.2686 30.776 55.7686 32.2761 48.2685 37.776L48.2281 37.7518C40.7478 33.2635 34.9592 29.7904 29.7686 37.7761C24.5686 45.7761 36.2685 55.276 48.2685 67.776C62.2685 52.276 70.2686 44.776 65.7686 37.776Z" stroke="#283149" stroke-width="3"/>
</svg>
